<?xml version="1.0" encoding="utf-8"?>
<!-- Generator: Adobe Illustrator 27.3.1, SVG Export Plug-In . SVG Version: 6.00 Build 0)  -->
<svg version="1.1" id="a" xmlns="http://www.w3.org/2000/svg" xmlns:xlink="http://www.w3.org/1999/xlink" x="0px" y="0px"
	 viewBox="0 0 232.7 438.5" style="enable-background:new 0 0 232.7 438.5;" xml:space="preserve">
<style type="text/css">
	.st0{fill:#FFFFFF;}
</style>
<g>
	<path class="st0" d="M0.1,406.6C0.1,406.6,0.1,406.6,0.1,406.6c0-0.1,0-0.1,0-0.1V406.6z"/>
	<path class="st0" d="M171,435.8c-0.1,0-0.3,0-0.4,0.1C170.7,435.9,170.9,435.9,171,435.8z"/>
	<path class="st0" d="M104.8,28.9c-7.7,2.5-14.1,7-18.8,13.8c-0.1,0.2-0.3,0.4-0.4,0.5c-1.1-2.9-3.9-4.9-7.2-4.9
		c-2.1,0-4.2,0.9-5.6,2.5c-0.8,0.9-1.5,2.1-1.8,3.3c-0.2,1,0.2,2.9-0.6,3.6c-0.2,0.2-0.6,0.3-0.9,0.2c-0.2-0.1-0.3-0.3-0.4-0.4
		c-1.5-2.1-3.3-4.2-6.2-4.2c-3.2,0-5.8,2.6-5.8,5.8c0,1.9,1,3.7,2.4,4.7c0.3,0.4,0.5,0.7,0.9,1c17.3,22,21.3,50.7,20.5,78
		c17.8-0.1,51,0.1,70.1,0c-0.2-21.8,1.1-45.8,12.7-65.2c1.5-4.3,6.8-9.2,9.4-14c1.4-1.1,2.2-2.7,2.2-4.6c0-3.2-2.6-5.8-5.8-5.8
		c-1.3,0-2.5,0.4-3.5,1.2c-0.5,0.4-1,0.8-1.3,1.3c-0.4,0.6-0.4,1.3-0.8,1.9c-0.4,0.5-1,0.9-1.6,0.8c-1.1-0.3-1.1-1.4-0.9-2.4
		c0.5-4.3-2.9-7.7-7.3-7.7c-3.2,0-6,2-7.2,4.9c-0.1-0.1-0.3-0.3-0.4-0.5c-4.7-6.8-11.1-11.3-18.8-13.8c11-9.5,3.5-29.4-11.4-28.9
		C101.4-0.5,93.8,19.4,104.8,28.9z"/>
	<path class="st0" d="M222.7,390.5c1.3-1.4,2.5-3,3.5-4.6c0.3-0.5,0.7-1.1,1-1.6c1-1.8,1.8-3.5,2.4-5.3c0.1-0.4,0.3-0.9,0.4-1.3
		c6.2-22.9-8.1-41.9-27.7-50.1c7.5-11.1-2.8-22.5-15.2-21.1c-8-38.6-34-74.7-34.5-114.1h0.3c0,0,0-0.1,0-0.1
		c23.6-0.9,28.3-24.8,8.1-34c7.8-9-0.4-15.5-10.1-13.8c-24.5,0-49,0.1-73.5,0c-9.1-0.5-11,7.7-6,14c-20.4,8.2-13.6,32.9,6.2,33.9
		h2.1c-2.1,23.5-6.6,46.4-18.3,68.7c-7.3,14.4-13.3,29.1-15.7,44.2v-0.5c-0.1,0.6-0.1,1.1-0.2,1.7c-12.3-1.4-22.6,10-15.1,21.1
		c-14.6,6-26.3,18.4-28.7,34.2c0-0.1,0-0.1,0-0.1c-0.4,2.1-0.5,4.2-0.5,6.3v-0.8c-0.1,4.6,0.5,7.9,1.9,12v-0.1
		c1.4,4.1,3.9,8.1,6.7,11.2c-3,2-5.3,4.1-7.1,7.1c-0.1,0.2-0.3,0.5-0.4,0.7V398c-0.6,1.1-1.1,2.2-1.4,3.3c-0.3,0.9-0.5,1.9-0.6,2.8
		V404c-0.1,0.9-0.2,1.7-0.2,2.6c0,1,0.1,2.1,0.2,3v-0.1c0.1,1,0.4,2,0.7,3v-0.1c11.5,32.4,136.8,26.8,170.1,23.4c-0.1,0-0.1,0-0.1,0
		c18.8-2.9,47.2-3.7,58.9-19.9c0.6-1,1.1-2.1,1.5-3.2c0.3-0.9,0.5-1.9,0.7-2.8c0.2-0.8,0.3-1.9,0.3-2.7c0-0.1,0-0.3,0-0.4
		C232.9,400.1,228.4,393.5,222.7,390.5z"/>
	<path class="st0" d="M80.3,126h-2.7C78.5,126,79.4,126,80.3,126z"/>
</g>
</svg>
