<?xml version="1.0" encoding="UTF-8"?><svg id="a" xmlns="http://www.w3.org/2000/svg" viewBox="0 0 520.1 504.9"><defs><style>.b{fill:#fff;}</style></defs><path class="b" d="M483.1,206c-1-21.4-19.2-37.9-40.6-37.9H75.8c-21.4,0-39.6,16.5-40.6,37.9-.3,6,.7,11.9,3,17.5l76.9,184.6h288l76.9-184.6c2.4-5.5,3.3-11.5,3-17.5Z"/><path class="b" d="M403.2,424.9H115.2l-41.4,41.4c-4.2,4.2-6.6,10-6.6,16,0,12.5,10.1,22.6,22.6,22.6h338.8c12.5,0,22.6-10.1,22.6-22.6s-2.4-11.8-6.6-16l-41.4-41.4Z"/><path class="b" d="M186.1,99.8c4.2,6.8,14.4,12.2,22.3,12.2h19.7v18c0,8,5.4,18.1,12.2,22.4,25.4,15.8,51.8-2,51.8-26v-14.3h16c18.1,0,32.6-14.9,32-33.1.1-6.5-1.7-13.5-6-20.4-4.2-6.8-14.4-12.2-22.3-12.2h-19.7v-18c0-8-5.4-18.1-12.2-22.4-25.4-15.8-51.8,2-51.8,26v14.3h-16c-18.1,0-32.6,14.9-32,33.1-.1,6.5,1.7,13.5,6,20.4Z"/><path class="b" d="M48.1,111.8c27.4,0,33.9,0,64,0,23.7,2.5,48-5.1,48-33.1,1.1-14.9-11.7-32.9-28.3-32.6,0,0-83.7,0-83.7,0h-16c-27.1-.2-40.8,31.5-26,53.5,8.4,14.1,28.1,12.4,42,12.2Z"/><path class="b" d="M408.1,111.8c27.4,0,33.9,0,64,0,23.7,2.5,48-5.1,48-33.1,1.1-14.9-11.7-32.9-28.3-32.6,0,0-83.7,0-83.7,0h-16c-27.1-.2-40.8,31.5-26,53.5,8.4,14.1,28.1,12.4,42,12.2Z"/></svg>