<?xml version="1.0" encoding="utf-8"?>
<!-- Generator: Adobe Illustrator 27.3.1, SVG Export Plug-In . SVG Version: 6.00 Build 0)  -->
<svg version="1.1" id="a" xmlns="http://www.w3.org/2000/svg" xmlns:xlink="http://www.w3.org/1999/xlink" x="0px" y="0px"
	 viewBox="0 0 560 560" style="enable-background:new 0 0 560 560;" xml:space="preserve">
<style type="text/css">
	.st0{fill:#81B64C;}
	.st1{opacity:0.25;}
	.st2{fill:#FFFFFF;}
</style>
<circle class="st0" cx="280" cy="280" r="280"/>
<path class="st1" d="M471.6,244.4H330l-43.8-134.6h0c-2-6-10.5-6-12.5,0L230,244.4H88.5c-6.3,0-9,8.1-3.8,11.8l114.5,83.2
	l-43.8,134.6c-2,6,5,11.1,10.1,7.3L280,398.2l114.5,83.2c5.1,3.7,12-1.3,10.1-7.3l-43.8-134.6l114.5-83.2
	C480.5,252.5,477.9,244.4,471.6,244.4z"/>
<path class="st2" d="M471.6,219.4H330L286.2,84.7h0c-2-6-10.5-6-12.5,0L230,219.4H88.5c-6.3,0-9,8.1-3.8,11.8l114.5,83.2
	l-43.8,134.6c-2,6,5,11.1,10.1,7.3L280,373.2l114.5,83.2c5.1,3.7,12-1.3,10.1-7.3l-43.8-134.6l114.5-83.2
	C480.5,227.5,477.9,219.4,471.6,219.4z"/>
</svg>
