<?xml version="1.0" encoding="utf-8"?>
<!-- Generator: Adobe Illustrator 27.3.1, SVG Export Plug-In . SVG Version: 6.00 Build 0)  -->
<svg version="1.1" id="a" xmlns="http://www.w3.org/2000/svg" xmlns:xlink="http://www.w3.org/1999/xlink" x="0px" y="0px"
	 viewBox="0 0 560 560" style="enable-background:new 0 0 560 560;" xml:space="preserve">
<style type="text/css">
	.st0{fill:#FA412D;}
	.st1{opacity:0.25;}
	.st2{fill:#FFFFFF;}
</style>
<circle class="st0" cx="280" cy="280" r="280"/>
<g class="st1">
	<path d="M258.9,135.1L258.9,135.1l-148.9,0c-6,0-11,4.9-11,11v101.4c0,6,4.9,11,11,11h37.4c6,0,11-4.9,11-11v-50.7h53.5V295h-56.7
		c-6,0-11,4.9-11,11v80.5c0,6,4.9,11,11,11h45.7c6,0,11-4.9,11-11v-35.3h47.1c6,0,11-4.9,11-11V146.1
		C269.8,140,264.9,135.1,258.9,135.1z"/>
	<path d="M201.5,428h-46.3c-6.1,0-11,4.9-11,11v47c0,6.1,4.9,11,11,11h46.3c6.1,0,11-4.9,11-11v-47C212.4,432.9,207.5,428,201.5,428
		z"/>
	<path d="M462,135.1L462,135.1l-148.9,0c-6,0-11,4.9-11,11v101.4c0,6,4.9,11,11,11h37.4c6,0,11-4.9,11-11v-50.7H415V295h-56.7
		c-6,0-11,4.9-11,11v80.5c0,6,4.9,11,11,11H404c6,0,11-4.9,11-11v-35.3h47c6,0,11-4.9,11-11V146.1C473,140,468.1,135.1,462,135.1z"
		/>
	<path d="M404.6,428h-46.3c-6.1,0-11,4.9-11,11v47c0,6.1,4.9,11,11,11h46.3c6.1,0,11-4.9,11-11v-47C415.6,432.9,410.7,428,404.6,428
		z"/>
</g>
<g>
	<path class="st2" d="M258.9,110.1L258.9,110.1l-148.9,0c-6,0-11,4.9-11,11v101.4c0,6,4.9,11,11,11h37.4c6,0,11-4.9,11-11v-50.7
		h53.5V270h-56.7c-6,0-11,4.9-11,11v80.5c0,6,4.9,11,11,11h45.7c6,0,11-4.9,11-11v-35.3h47.1c6,0,11-4.9,11-11V121.1
		C269.8,115,264.9,110.1,258.9,110.1z"/>
	<path class="st2" d="M201.5,403h-46.3c-6.1,0-11,4.9-11,11v47c0,6.1,4.9,11,11,11h46.3c6.1,0,11-4.9,11-11v-47
		C212.4,407.9,207.5,403,201.5,403z"/>
	<path class="st2" d="M462,110.1L462,110.1l-148.9,0c-6,0-11,4.9-11,11v101.4c0,6,4.9,11,11,11h37.4c6,0,11-4.9,11-11v-50.7H415V270
		h-56.7c-6,0-11,4.9-11,11v80.5c0,6,4.9,11,11,11H404c6,0,11-4.9,11-11v-35.3h47c6,0,11-4.9,11-11V121.1
		C473,115,468.1,110.1,462,110.1z"/>
	<path class="st2" d="M404.6,403h-46.3c-6.1,0-11,4.9-11,11v47c0,6.1,4.9,11,11,11h46.3c6.1,0,11-4.9,11-11v-47
		C415.6,407.9,410.7,403,404.6,403z"/>
</g>
</svg>
