<?xml version="1.0" encoding="utf-8"?>
<!-- Generator: Adobe Illustrator 27.3.1, SVG Export Plug-In . SVG Version: 6.00 Build 0)  -->
<svg version="1.1" id="a" xmlns="http://www.w3.org/2000/svg" xmlns:xlink="http://www.w3.org/1999/xlink" x="0px" y="0px"
	 viewBox="0 0 560 560" style="enable-background:new 0 0 560 560;" xml:space="preserve">
<style type="text/css">
	.st0{fill:#26C2A3;}
	.st1{opacity:0.15;}
	.st2{fill:#FFFFFF;}
</style>
<circle class="st0" cx="280" cy="280" r="280"/>
<g class="st1">
	<path d="M238.6,417.6h-52.3c-6.8,0-12.3,5.5-12.3,12.3v53c0,6.8,5.5,12.4,12.3,12.4h52.3c6.8,0,12.3-5.5,12.3-12.4v-53
		C250.9,423.1,245.4,417.6,238.6,417.6z"/>
	<path d="M238.6,113.6h-52.3c-6.8,0-12.3,5.5-12.3,12.4v232c0,6.8,5.5,12.4,12.3,12.4h52.3c6.8,0,12.3-5.5,12.3-12.4V126
		C250.9,119.1,245.4,113.6,238.6,113.6z"/>
	<path d="M373.7,418.7h-52.3c-6.8,0-12.3,5.5-12.3,12.3v53c0,6.8,5.5,12.4,12.3,12.4h52.3c6.8,0,12.3-5.5,12.3-12.4v-53
		C386,424.2,380.5,418.7,373.7,418.7z"/>
	<path d="M373.7,114.6h-52.3c-6.8,0-12.3,5.5-12.3,12.3v232c0,6.8,5.5,12.3,12.3,12.3h52.3c6.8,0,12.3-5.5,12.3-12.3V127
		C386,120.2,380.5,114.6,373.7,114.6z"/>
</g>
<g>
	<path class="st2" d="M238.6,392.6h-52.3c-6.8,0-12.3,5.5-12.3,12.3v53c0,6.8,5.5,12.4,12.3,12.4h52.3c6.8,0,12.3-5.5,12.3-12.4v-53
		C250.9,398.1,245.4,392.6,238.6,392.6z"/>
	<path class="st2" d="M238.6,88.6h-52.3c-6.8,0-12.3,5.5-12.3,12.4v232c0,6.8,5.5,12.4,12.3,12.4h52.3c6.8,0,12.3-5.5,12.3-12.4V101
		C250.9,94.1,245.4,88.6,238.6,88.6z"/>
	<path class="st2" d="M373.7,393.7h-52.3c-6.8,0-12.3,5.5-12.3,12.3v53c0,6.8,5.5,12.4,12.3,12.4h52.3c6.8,0,12.3-5.5,12.3-12.4v-53
		C386,399.2,380.5,393.7,373.7,393.7z"/>
	<path class="st2" d="M373.7,89.6h-52.3c-6.8,0-12.3,5.5-12.3,12.3v232c0,6.8,5.5,12.3,12.3,12.3h52.3c6.8,0,12.3-5.5,12.3-12.3V102
		C386,95.2,380.5,89.6,373.7,89.6z"/>
</g>
</svg>
