<?xml version="1.0" encoding="utf-8"?>
<!-- Generator: Adobe Illustrator 27.3.1, SVG Export Plug-In . SVG Version: 6.00 Build 0)  -->
<svg version="1.1" id="a" xmlns="http://www.w3.org/2000/svg" xmlns:xlink="http://www.w3.org/1999/xlink" x="0px" y="0px"
	 viewBox="0 0 560 560" style="enable-background:new 0 0 560 560;" xml:space="preserve">
<style type="text/css">
	.st0{fill:#81B64C;}
	.st1{opacity:0.25;}
	.st2{fill:#FFFFFF;}
</style>
<circle class="st0" cx="280" cy="280" r="280"/>
<g class="st1">
	<path d="M467.3,282.5c-1.2-11.8-11.9-21-23.2-23.2c-32.9-6.3-61.5,1.8-84.4,0.5c-4.3-0.2-23.2-5.4-17.9-14.3
		c8.3-13.8,22.3-87.8,10.4-101c-4.9-5.4-15.5-12-25.1-10.1c-51,9.6,18.8,67.4-104,132.6c0,52.4,0.2,105.9,0,143
		c25.7,0.9,28.9,16.6,58.5,30.8c12.7,6.1,101.5,5.4,121.9,4.1c6.1-0.4,17-9.7,19.5-22c3.8-18.4-15.3-22.8-7.8-21.9
		c4.8,0.5,28.4-3,29.4-19.4c1.6-25.5-14-26.3-7.5-26.6c11.2-0.5,20.2-11.4,21-22.3c1.8-25.2-17.8-19-8.5-22.3v0
		C465,304.6,468.4,293.3,467.3,282.5z"/>
	<path d="M179.8,246.5L179.8,246.5l-66.7,0v187h66.7c10.3,0,18.6-8.3,18.6-18.6V265.1C198.4,254.8,190,246.5,179.8,246.5z"/>
</g>
<g>
	<path class="st2" d="M467.3,257.5c-1.2-11.8-11.9-21-23.2-23.2c-32.9-6.3-61.5,1.8-84.4,0.5c-4.3-0.2-23.2-5.4-17.9-14.3
		c8.3-13.8,22.3-87.8,10.4-101c-4.9-5.4-15.5-12-25.1-10.1c-51,9.6,18.8,67.4-104,132.6c0,52.4,0.2,105.9,0,143
		c25.7,0.9,28.9,16.6,58.5,30.8c12.7,6.1,101.5,5.4,121.9,4.1c6.1-0.4,17-9.7,19.5-22c3.8-18.4-15.3-22.8-7.8-21.9
		c4.8,0.5,28.4-3,29.4-19.4c1.6-25.5-14-26.3-7.5-26.6c11.2-0.5,20.2-11.4,21-22.3c1.8-25.2-17.8-19-8.5-22.3v0
		C465,279.6,468.4,268.3,467.3,257.5z"/>
	<path class="st2" d="M179.8,221.5L179.8,221.5l-66.7,0v187h66.7c10.3,0,18.6-8.3,18.6-18.6V240.1
		C198.4,229.8,190,221.5,179.8,221.5z"/>
</g>
</svg>
