<?xml version="1.0" encoding="utf-8"?>
<!-- Generator: Adobe Illustrator 27.3.1, SVG Export Plug-In . SVG Version: 6.00 Build 0)  -->
<svg version="1.1" id="a" xmlns="http://www.w3.org/2000/svg" xmlns:xlink="http://www.w3.org/1999/xlink" x="0px" y="0px"
	 viewBox="0 0 560 560" style="enable-background:new 0 0 560 560;" xml:space="preserve">
<style type="text/css">
	.st0{fill:#95B776;}
	.st1{opacity:0.25;}
	.st2{fill:#FFFFFF;}
</style>
<circle class="st0" cx="280" cy="280" r="280"/>
<path class="st1" d="M490.9,216.9l-50.1-50.1c-4.8-4.8-12.6-4.8-17.5,0L239.1,351.2L151.9,264c-4.8-4.8-12.6-4.8-17.5,0L84.4,314
	c-4.8,4.8-4.8,12.6,0,17.5l145.3,145.3c3.3,3.3,8.1,4.4,12.3,3.1c2.5-0.4,5-1.5,7-3.5l242-241.9
	C495.8,229.6,495.8,221.8,490.9,216.9z"/>
<path class="st2" d="M490.9,191.9l-50.1-50.1c-4.8-4.8-12.6-4.8-17.5,0L239.1,326.2L151.9,239c-4.8-4.8-12.6-4.8-17.5,0L84.4,289
	c-4.8,4.8-4.8,12.6,0,17.5l145.3,145.3c3.3,3.3,8.1,4.4,12.3,3.1c2.5-0.4,5-1.5,7-3.5l242-241.9
	C495.8,204.6,495.8,196.8,490.9,191.9z"/>
</svg>
