<?xml version="1.0" encoding="utf-8"?>
<!-- Generator: Adobe Illustrator 27.3.1, SVG Export Plug-In . SVG Version: 6.00 Build 0)  -->
<svg version="1.1" id="a" xmlns="http://www.w3.org/2000/svg" xmlns:xlink="http://www.w3.org/1999/xlink" x="0px" y="0px"
	 viewBox="0 0 560 560" style="enable-background:new 0 0 560 560;" xml:space="preserve">
<style type="text/css">
	.st0{fill:#749BBF;}
	.st1{opacity:0.25;}
	.st2{fill:#FFFFFF;}
</style>
<circle class="st0" cx="280" cy="280" r="280"/>
<g class="st1">
	<path d="M306.8,419.1h-52.3c-6.8,0-12.3,5.5-12.3,12.4v53c0,6.8,5.5,12.3,12.3,12.3h52.3c6.8,0,12.4-5.5,12.4-12.3v-53
		C319.2,424.6,313.6,419.1,306.8,419.1z"/>
	<path d="M306.8,115h-52.3c-6.8,0-12.3,5.5-12.3,12.4v232c0,6.8,5.5,12.4,12.3,12.4h52.3c6.8,0,12.4-5.5,12.4-12.4v-232
		C319.2,120.6,313.6,115,306.8,115z"/>
</g>
<g>
	<path class="st2" d="M306.8,394.1h-52.3c-6.8,0-12.3,5.5-12.3,12.4v53c0,6.8,5.5,12.3,12.3,12.3h52.3c6.8,0,12.4-5.5,12.4-12.3v-53
		C319.2,399.6,313.6,394.1,306.8,394.1z"/>
	<path class="st2" d="M306.8,90h-52.3c-6.8,0-12.3,5.5-12.3,12.4v232c0,6.8,5.5,12.4,12.3,12.4h52.3c6.8,0,12.4-5.5,12.4-12.4v-232
		C319.2,95.6,313.6,90,306.8,90z"/>
</g>
</svg>
