<?xml version="1.0" encoding="utf-8"?>
<!-- Generator: Adobe Illustrator 27.3.1, SVG Export Plug-In . SVG Version: 6.00 Build 0)  -->
<svg version="1.1" id="a" xmlns="http://www.w3.org/2000/svg" xmlns:xlink="http://www.w3.org/1999/xlink" x="0px" y="0px"
	 viewBox="0 0 560 560" style="enable-background:new 0 0 560 560;" xml:space="preserve">
<style type="text/css">
	.st0{fill:#F7C631;}
	.st1{opacity:0.15;}
	.st2{fill:#FFFFFF;}
</style>
<circle class="st0" cx="280" cy="280" r="280"/>
<g class="st1">
	<path d="M411.8,441.4h-52.3c-6.8,0-12.3,5.5-12.3,12.3v53c0,6.8,5.5,12.4,12.3,12.4h52.3c6.8,0,12.3-5.5,12.3-12.4v-53
		C424.2,446.9,418.7,441.4,411.8,441.4z"/>
	<path d="M411.8,113.8h-52.3c-6.8,0-12.3,5.5-12.3,12.3v270.9c0,6.8,5.5,12.4,12.3,12.4h52.3c6.8,0,12.3-5.5,12.3-12.4V126.2
		C424.2,119.3,418.7,113.8,411.8,113.8z"/>
	<path d="M292.5,113.8L292.5,113.8H124.7c-6.8,0-12.4,5.5-12.4,12.3v114.3c0,6.8,5.5,12.4,12.4,12.4h42.2c6.8,0,12.4-5.5,12.4-12.4
		v-57.1h60.3V294h-63.9c-6.8,0-12.4,5.5-12.4,12.3v90.7c0,6.8,5.5,12.4,12.4,12.4h51.6c6.8,0,12.3-5.5,12.3-12.4v-39.8h53
		c6.8,0,12.3-5.5,12.3-12.3V126.2C304.8,119.3,299.3,113.8,292.5,113.8z"/>
	<path d="M227.8,443.9h-52.3c-6.8,0-12.3,5.5-12.3,12.4v53c0,6.8,5.5,12.3,12.3,12.3h52.3c6.8,0,12.3-5.5,12.3-12.3v-53
		C240.1,449.4,234.6,443.9,227.8,443.9z"/>
</g>
<g>
	<path class="st2" d="M411.8,416.4h-52.3c-6.8,0-12.3,5.5-12.3,12.3v53c0,6.8,5.5,12.4,12.3,12.4h52.3c6.8,0,12.3-5.5,12.3-12.4v-53
		C424.2,421.9,418.7,416.4,411.8,416.4z"/>
	<path class="st2" d="M411.8,88.8h-52.3c-6.8,0-12.3,5.5-12.3,12.3v270.9c0,6.8,5.5,12.4,12.3,12.4h52.3c6.8,0,12.3-5.5,12.3-12.4
		V101.2C424.2,94.3,418.7,88.8,411.8,88.8z"/>
	<path class="st2" d="M292.5,88.8L292.5,88.8H124.7c-6.8,0-12.4,5.5-12.4,12.3v114.3c0,6.8,5.5,12.4,12.4,12.4h42.2
		c6.8,0,12.4-5.5,12.4-12.4v-57.1h60.3V269h-63.9c-6.8,0-12.4,5.5-12.4,12.3v90.7c0,6.8,5.5,12.4,12.4,12.4h51.6
		c6.8,0,12.3-5.5,12.3-12.4v-39.8h53c6.8,0,12.3-5.5,12.3-12.3V101.2C304.8,94.3,299.3,88.8,292.5,88.8z"/>
	<path class="st2" d="M227.8,418.9h-52.3c-6.8,0-12.3,5.5-12.3,12.4v53c0,6.8,5.5,12.3,12.3,12.3h52.3c6.8,0,12.3-5.5,12.3-12.3v-53
		C240.1,424.4,234.6,418.9,227.8,418.9z"/>
</g>
</svg>
