<?xml version="1.0" encoding="utf-8"?>
<!-- Generator: Adobe Illustrator 27.3.1, SVG Export Plug-In . SVG Version: 6.00 Build 0)  -->
<svg version="1.1" id="a" xmlns="http://www.w3.org/2000/svg" xmlns:xlink="http://www.w3.org/1999/xlink" x="0px" y="0px"
	 viewBox="0 0 560 560" style="enable-background:new 0 0 560 560;" xml:space="preserve">
<style type="text/css">
	.st0{fill:#FF7769;}
	.st1{opacity:0.25;}
	.st2{fill:#FFFFFF;}
</style>
<circle class="st0" cx="280" cy="280" r="280"/>
<path class="st1" d="M352.9,305l94.1-94.1c5.2-5.2,5.2-13.6,0-18.8l-54-54c-5.2-5.2-13.7-5.2-18.9,0L280,232.1L185.9,138
	c-5.2-5.2-13.6-5.2-18.8,0l-54,54c-5.2,5.2-5.2,13.6,0,18.8l94.1,94.1L113,399.1c-5.2,5.2-5.2,13.6,0,18.8l54,54
	c5.2,5.2,13.6,5.2,18.8,0l94.1-94.1l94.1,94.1c5.2,5.2,13.7,5.2,18.9,0l54-54c5.2-5.2,5.2-13.6,0-18.8L352.9,305z"/>
<path class="st2" d="M352.9,280l94.1-94.1c5.2-5.2,5.2-13.6,0-18.8l-54-54c-5.2-5.2-13.7-5.2-18.9,0L280,207.1L185.9,113
	c-5.2-5.2-13.6-5.2-18.8,0l-54,54c-5.2,5.2-5.2,13.6,0,18.8l94.1,94.1L113,374.1c-5.2,5.2-5.2,13.6,0,18.8l54,54
	c5.2,5.2,13.6,5.2,18.8,0l94.1-94.1l94.1,94.1c5.2,5.2,13.7,5.2,18.9,0l54-54c5.2-5.2,5.2-13.6,0-18.8L352.9,280z"/>
</svg>
