<?xml version="1.0" encoding="utf-8"?>
<!-- Generator: Adobe Illustrator 27.3.1, SVG Export Plug-In . SVG Version: 6.00 Build 0)  -->
<svg version="1.1" id="a" xmlns="http://www.w3.org/2000/svg" xmlns:xlink="http://www.w3.org/1999/xlink" x="0px" y="0px"
	 viewBox="0 0 560 560" style="enable-background:new 0 0 560 560;" xml:space="preserve">
<style type="text/css">
	.st0{fill:#FFA459;}
	.st1{opacity:0.25;}
	.st2{fill:#FFFFFF;}
</style>
<circle class="st0" cx="280" cy="280" r="280"/>
<g class="st1">
	<path d="M363.9,126.1H196.1c-6.8,0-12.4,5.5-12.4,12.4v114.3c0,6.8,5.5,12.4,12.4,12.4h42.2c6.8,0,12.4-5.5,12.4-12.4v-57.1h60.3
		v110.7H247c-6.8,0-12.3,5.5-12.3,12.3v90.7c0,6.8,5.5,12.4,12.3,12.4h51.6c6.8,0,12.4-5.5,12.4-12.4v-39.8h53
		c6.8,0,12.4-5.5,12.4-12.3V138.5C376.3,131.6,370.7,126.1,363.9,126.1z"/>
	<path d="M299.2,456.2H247c-6.8,0-12.3,5.5-12.3,12.3v53c0,6.8,5.5,12.4,12.3,12.4h52.3c6.8,0,12.3-5.5,12.3-12.4v-53
		C311.6,461.7,306,456.2,299.2,456.2z"/>
</g>
<g>
	<path class="st2" d="M363.9,101.1H196.1c-6.8,0-12.4,5.5-12.4,12.4v114.3c0,6.8,5.5,12.4,12.4,12.4h42.2c6.8,0,12.4-5.5,12.4-12.4
		v-57.1h60.3v110.7H247c-6.8,0-12.3,5.5-12.3,12.3v90.7c0,6.8,5.5,12.4,12.3,12.4h51.6c6.8,0,12.4-5.5,12.4-12.4v-39.8h53
		c6.8,0,12.4-5.5,12.4-12.3V113.5C376.3,106.6,370.7,101.1,363.9,101.1z"/>
	<path class="st2" d="M299.2,431.2H247c-6.8,0-12.3,5.5-12.3,12.3v53c0,6.8,5.5,12.4,12.3,12.4h52.3c6.8,0,12.3-5.5,12.3-12.4v-53
		C311.6,436.7,306,431.2,299.2,431.2z"/>
</g>
</svg>
