<?xml version="1.0" encoding="utf-8"?>
<!-- Generator: Adobe Illustrator 27.3.1, SVG Export Plug-In . SVG Version: 6.00 Build 0)  -->
<svg version="1.1" id="a" xmlns="http://www.w3.org/2000/svg" xmlns:xlink="http://www.w3.org/1999/xlink" x="0px" y="0px"
	 viewBox="0 0 560 560" style="enable-background:new 0 0 560 560;" xml:space="preserve">
<style type="text/css">
	.st0{fill:#D5A47D;}
	.st1{opacity:0.25;}
	.st2{fill:#FFFFFF;}
</style>
<circle class="st0" cx="280" cy="280" r="280"/>
<g class="st1">
	<path d="M122.5,170.4v269.2c0,20.1,16.3,36.3,36.3,36.3h102.1V134.1H158.8C138.8,134.1,122.6,150.4,122.5,170.4z"/>
	<path d="M401.2,134.1H299.1v341.8h102.1c20,0,36.2-16.3,36.3-36.3V170.4C437.5,150.3,421.2,134.1,401.2,134.1z"/>
</g>
<g>
	<path class="st2" d="M122.5,145.4v269.2c0,20.1,16.3,36.3,36.3,36.3h102.1V109.1H158.8C138.8,109.1,122.6,125.4,122.5,145.4z"/>
	<path class="st2" d="M401.2,109.1H299.1v341.8h102.1c20,0,36.2-16.3,36.3-36.3V145.4C437.5,125.3,421.2,109.1,401.2,109.1z"/>
</g>
</svg>
